<svg xmlns="http://www.w3.org/2000/svg" width="160.964" height="30.482" viewBox="0 0 160.964 30.482">
  <g id="clients_reviews_logo" transform="translate(-2311 -4769.259)">
    <path id="gamc_logo" d="M616.159,296.233a2.031,2.031,0,0,0,1.9-2.126,1.869,1.869,0,0,0-1.9-1.976h-4.732a10.387,10.387,0,0,0-9.549,9.289l-.058,11.745a10.419,10.419,0,0,0,3.144,6.522,9.875,9.875,0,0,0,6.7,2.926h4.77a2.16,2.16,0,0,0,1.649-2.1,2.224,2.224,0,0,0-1.764-2.026h-4.656a6.17,6.17,0,0,1-4.01-1.97,6.45,6.45,0,0,1-1.7-3.9v-3.205l16.855,0a1.478,1.478,0,0,1,1.1,1.33,1.517,1.517,0,0,1-1.1,1.352H611.155a2.054,2.054,0,0,0,0,4.088H623.2s4.84-.592,4.837-5.441-4.837-5.492-4.837-5.492H613.065a1.336,1.336,0,0,1-1.172-1.281,1.449,1.449,0,0,1,1.172-1.358h10.913a2.155,2.155,0,0,0,1.968-2.054c.033-1.861-1.968-2.043-1.968-2.043h-11.46a5.406,5.406,0,0,0-3.912,2.433,5.158,5.158,0,0,0-.666,4.3h-1.987v-3.218a5.462,5.462,0,0,1,1.651-3.781,6.116,6.116,0,0,1,4-2.014Z" transform="translate(1776.57 4477.128)" fill="#fff"/>
    <path id="Path_46" data-name="Path 46" d="M2422.987,4784.5h48.977" fill="none" stroke="#fff" stroke-width="1"/>
    <path id="Path_47" data-name="Path 47" d="M2422.987,4784.5h48.977" transform="translate(-111.987)" fill="none" stroke="#fff" stroke-width="1"/>
  </g>
</svg>
