<svg xmlns="http://www.w3.org/2000/svg" width="99.561" height="115.755" viewBox="0 0 99.561 115.755">
  <path id="footer_logo" d="M656.269,307.71s7.287-.451,7.215-8.073-7.215-7.505-7.215-7.505H638.3s-13.316-.339-24.842,11.364-11.419,23.909-11.419,23.909l-.219,44.6s.338,13.223,11.94,24.765A37.5,37.5,0,0,0,639.2,407.883h18.114s6.511-1.594,6.263-7.989-6.7-7.693-6.7-7.693H639.2a23.432,23.432,0,0,1-15.226-7.48,24.491,24.491,0,0,1-6.468-14.82V357.731l64,.012s4.183,1.112,4.186,5.049-4.186,5.136-4.186,5.136H637.267s-7,.61-7.053,7.74,7.053,7.785,7.053,7.785h45.748s18.378-2.249,18.368-20.661-18.368-20.856-18.368-20.856h-38.5s-4.445-.6-4.451-4.866,4.451-5.159,4.451-5.159h41.44s7.345-.73,7.472-7.8-7.472-7.759-7.472-7.759H642.44a20.531,20.531,0,0,0-14.854,9.239c-5.422,8.609-2.529,16.344-2.529,16.344H617.51V329.715s-.542-6.923,6.271-14.359a23.225,23.225,0,0,1,15.19-7.646Z" transform="translate(-601.82 -292.131)" fill="#fff"/>
</svg>
